<svg width="234" height="50" viewBox="0 0 234 50" fill="none" xmlns="http://www.w3.org/2000/svg">
<rect width="234" height="50" fill="#3A86FF"/>
<rect x="26" y="10" width="24" height="3" fill="white"/>
<rect x="26" y="16" width="24" height="3" fill="white"/>
<rect x="26" y="22" width="24" height="3" fill="white"/>
<rect x="26" y="28" width="24" height="3" fill="white"/>
<rect x="60" y="10" width="24" height="3" fill="white"/>
<rect x="60" y="16" width="24" height="3" fill="white"/>
<rect x="60" y="22" width="24" height="3" fill="white"/>
<rect x="60" y="28" width="24" height="3" fill="white"/>
<rect x="94" y="10" width="24" height="3" fill="white"/>
<rect x="94" y="16" width="24" height="3" fill="white"/>
<rect x="94" y="22" width="24" height="3" fill="white"/>
<rect x="94" y="28" width="24" height="3" fill="white"/>
<rect x="128" y="12" width="74" height="3" fill="white"/>
<rect x="128" y="18" width="62" height="3" fill="white"/>
<rect x="128" y="24" width="53" height="3" fill="white"/>
<rect x="26" y="39" width="87.5705" height="6" fill="white"/>
<rect x="121.43" y="39" width="87.5705" height="6" fill="white"/>
</svg>
