<?xml version="1.0" encoding="UTF-8"?>
<!-- Generator: Adobe Illustrator 26.0.1, SVG Export Plug-In . SVG Version: 6.00 Build 0)  -->
<svg xmlns="http://www.w3.org/2000/svg" xmlns:xlink="http://www.w3.org/1999/xlink" version="1.1" id="Capa_1" x="0px" y="0px" viewBox="0 0 511.877 511.877" style="enable-background:new 0 0 511.877 511.877;" xml:space="preserve" width="512" height="512">
    <g>
        <path d="M120.807,211.246c-0.93-7.21,2.67-14.88,6.74-19.57c4.53-5.49,12.36-9.4,18.78-9.72c0.78,7.52-2.19,14.88-6.58,20.36   C135.207,207.646,128.017,211.866,120.807,211.246z" />
        <path d="M172.777,275.276c-0.16,0.47-2.65,9.06-8.74,17.96c-5.31,7.81-10.77,15.46-19.51,15.62c-8.43,0.16-11.24-5-20.92-5   c-9.68,0-12.8,4.84-20.76,5.16c-8.43,0.31-14.82-8.29-20.13-16.09c-10.93-15.78-19.2-44.51-7.96-63.88   c5.46-9.68,15.45-15.77,26.22-15.93c8.27-0.15,15.92,5.47,20.92,5.47c4.99,0,13.88-6.56,24.34-5.93   c4.06,0.31,15.77,1.56,23.26,12.64c-0.62,0.48-13.89,8.13-13.73,24.21C155.917,268.716,172.617,275.116,172.777,275.276z" />
        <path d="M237.307,190.886h-43.92v117.15h18.18v-40.02h25.17c22.98,0,39.13-15.75,39.13-38.65   C275.867,206.556,260.047,190.886,237.307,190.886z M232.437,252.746h-20.87v-46.52h20.95c15.75,0,24.76,8.45,24.76,23.22   C257.277,244.226,248.267,252.746,232.437,252.746z" />
        <path d="M319.267,221.086c-21.11,0-34.26,11.37-35.23,26.79h16.56c1.54-7.63,7.87-12.5,18.02-12.5c10.72,0,17.13,5.68,17.13,15.18   v6.58l-23.38,1.38c-20.3,1.14-31.74,10.31-31.74,25.25c0,15.34,11.69,25.74,28.41,25.74c11.21,0,22.01-6.01,26.96-15.51h0.4v14.04   h16.81v-58.86C353.207,232.046,339.977,221.086,319.267,221.086z M335.747,276.056c0,11.12-9.58,19.56-21.84,19.56   c-9.41,0-15.58-4.87-15.58-12.34c0-7.3,5.92-11.93,16.39-12.66l21.03-1.3V276.056z" />
        <path d="M423.147,222.626h18.51l-31.99,89.88c-7.31,20.7-15.75,27.36-33.45,27.36c-1.46,0-5.85-0.16-7.14-0.4v-14.21   c1.29,0.32,4.21,0.32,5.68,0.32c8.12,0,12.5-3.41,15.18-12.18c0-0.16,1.54-5.19,1.54-5.27l-30.85-85.5h19l21.6,69.5h0.32   L423.147,222.626z" />
        <path d="M511.867,132.686c-0.044-7.836-0.27-16.067-3.93-23.19c-2.954-5.751-7.691-10.52-13.45-13.46   c-7.182-3.667-15.309-3.884-23.2-3.93c-1.75-0.01-3.5-0.01-5.25-0.01c0,0-420.18,0-420.18,0c-6.42,0-12.956-0.209-19.3,0.93   c-6.364,1.145-12.358,4.097-16.95,8.67c-4.595,4.576-7.53,10.603-8.67,16.95c-1.141,6.347-0.92,12.877-0.92,19.3   c0,0,0,236.01,0,236.01c0,1.75-0.01,3.5,0,5.25c0.045,7.87,0.278,16.033,3.93,23.19c2.936,5.755,7.695,10.537,13.46,13.46   c7.181,3.64,15.327,3.829,23.2,3.92c1.74,0.02,3.5,0.02,5.25,0.02h420.18c1.75,0,3.5,0,5.25-0.02   c7.809-0.089,15.988-0.253,23.2-3.92c5.751-2.924,10.533-7.707,13.45-13.46c3.627-7.155,3.885-15.335,3.93-23.19   c0.01-1.75,0.01-3.5,0.01-5.25v-236.01C511.877,136.186,511.877,134.436,511.867,132.686z M500.957,373.956c0,1.72,0,3.44-0.01,5.2   c-0.035,6.101,0.092,12.714-2.74,18.29c-1.886,3.713-4.981,6.795-8.69,8.68c-5.582,2.837-12.205,2.695-18.31,2.73   c-1.72,0.01-3.45,0.01-5.17,0.01H45.787c-1.7,0-3.4,0-5.13-0.01c-6.115-0.044-12.722,0.102-18.31-2.75   c-3.709-1.894-6.78-4.94-8.66-8.66c-2.827-5.593-2.696-12.188-2.74-18.3c0,0-0.01-4.11-0.01-4.11v-238.18l0.01-4.09   c0.01-1.4,0.02-2.8,0.06-4.2c0.136-4.762,0.487-9.813,2.68-14.13c1.877-3.694,4.973-6.791,8.669-8.66   c4.362-2.205,9.322-2.544,14.122-2.681c1.4-0.04,2.8-0.05,4.19-0.06l5.19-0.01h420.18c0,0,5.17,0.01,5.17,0.01   c6.102,0.012,12.756-0.095,18.33,2.74c3.719,1.89,6.773,4.967,8.67,8.68c2.846,5.571,2.705,12.22,2.74,18.32   c0.01,1.72,0.01,3.44,0.01,5.17V373.956z" />
        <path d="M120.807,211.246c-0.93-7.21,2.67-14.88,6.74-19.57c4.53-5.49,12.36-9.4,18.78-9.72c0.78,7.52-2.19,14.88-6.58,20.36   C135.207,207.646,128.017,211.866,120.807,211.246z" />
        <path d="M172.777,275.276c-0.16,0.47-2.65,9.06-8.74,17.96c-5.31,7.81-10.77,15.46-19.51,15.62c-8.43,0.16-11.24-5-20.92-5   c-9.68,0-12.8,4.84-20.76,5.16c-8.43,0.31-14.82-8.29-20.13-16.09c-10.93-15.78-19.2-44.51-7.96-63.88   c5.46-9.68,15.45-15.77,26.22-15.93c8.27-0.15,15.92,5.47,20.92,5.47c4.99,0,13.88-6.56,24.34-5.93   c4.06,0.31,15.77,1.56,23.26,12.64c-0.62,0.48-13.89,8.13-13.73,24.21C155.917,268.716,172.617,275.116,172.777,275.276z" />
        <path d="M237.307,190.886h-43.92v117.15h18.18v-40.02h25.17c22.98,0,39.13-15.75,39.13-38.65   C275.867,206.556,260.047,190.886,237.307,190.886z M232.437,252.746h-20.87v-46.52h20.95c15.75,0,24.76,8.45,24.76,23.22   C257.277,244.226,248.267,252.746,232.437,252.746z" />
        <path d="M319.267,221.086c-21.11,0-34.26,11.37-35.23,26.79h16.56c1.54-7.63,7.87-12.5,18.02-12.5c10.72,0,17.13,5.68,17.13,15.18   v6.58l-23.38,1.38c-20.3,1.14-31.74,10.31-31.74,25.25c0,15.34,11.69,25.74,28.41,25.74c11.21,0,22.01-6.01,26.96-15.51h0.4v14.04   h16.81v-58.86C353.207,232.046,339.977,221.086,319.267,221.086z M335.747,276.056c0,11.12-9.58,19.56-21.84,19.56   c-9.41,0-15.58-4.87-15.58-12.34c0-7.3,5.92-11.93,16.39-12.66l21.03-1.3V276.056z" />
        <path d="M441.657,222.626l-31.99,89.88c-7.31,20.7-15.75,27.36-33.45,27.36c-1.46,0-5.85-0.16-7.14-0.4v-14.21   c1.29,0.32,4.21,0.32,5.68,0.32c8.12,0,12.5-3.41,15.18-12.18c0-0.16,1.54-5.19,1.54-5.27l-30.85-85.5h19l21.6,69.5h0.32l21.6-69.5   H441.657z" />
        <g>
            <g>
                <path d="M139.747,202.316c-4.54,5.33-11.73,9.55-18.94,8.93c-0.93-7.21,2.67-14.88,6.74-19.57c4.53-5.49,12.36-9.4,18.78-9.72     C147.107,189.476,144.137,196.836,139.747,202.316z" />
                <path d="M172.777,275.276c-0.16,0.47-2.65,9.06-8.74,17.96c-5.31,7.81-10.77,15.46-19.51,15.62c-8.43,0.16-11.24-5-20.92-5     c-9.68,0-12.8,4.84-20.76,5.16c-8.43,0.31-14.82-8.29-20.13-16.09c-10.93-15.78-19.2-44.51-7.96-63.88     c5.46-9.68,15.45-15.77,26.22-15.93c8.27-0.15,15.92,5.47,20.92,5.47c4.99,0,13.88-6.56,24.34-5.93     c4.06,0.31,15.77,1.56,23.26,12.64c-0.62,0.48-13.89,8.13-13.73,24.21C155.917,268.716,172.617,275.116,172.777,275.276z" />
            </g>
            <g>
                <path d="M237.307,190.886h-43.92v117.15h18.18v-40.02h25.17c22.98,0,39.13-15.75,39.13-38.65     C275.867,206.556,260.047,190.886,237.307,190.886z M232.437,252.746h-20.87v-46.52h20.95c15.75,0,24.76,8.45,24.76,23.22     C257.277,244.226,248.267,252.746,232.437,252.746z" />
                <path d="M319.267,221.086c-21.11,0-34.26,11.37-35.23,26.79h16.56c1.54-7.63,7.87-12.5,18.02-12.5     c10.72,0,17.13,5.68,17.13,15.18v6.58l-23.38,1.38c-20.3,1.14-31.74,10.31-31.74,25.25c0,15.34,11.69,25.74,28.41,25.74     c11.21,0,22.01-6.01,26.96-15.51h0.4v14.04h16.81v-58.86C353.207,232.046,339.977,221.086,319.267,221.086z M335.747,276.056     c0,11.12-9.58,19.56-21.84,19.56c-9.41,0-15.58-4.87-15.58-12.34c0-7.3,5.92-11.93,16.39-12.66l21.03-1.3V276.056z" />
                <path d="M423.147,222.626l-21.6,69.5h-0.32l-21.6-69.5h-19l30.85,85.5c0,0.08-1.54,5.11-1.54,5.27     c-2.68,8.77-7.06,12.18-15.18,12.18c-1.47,0-4.39,0-5.68-0.32v14.21c1.29,0.24,5.68,0.4,7.14,0.4c17.7,0,26.14-6.66,33.45-27.36     l31.99-89.88H423.147z" />
            </g>
        </g>
    </g>
</svg>